<svg width="44" height="21" viewBox="0 0 44 21" fill="none" xmlns="http://www.w3.org/2000/svg">
<path d="M0.649902 0.398926H8.79346V20.9697H0.649902V0.398926ZM11.3062 5.99951C11.3062 3.76937 11.8713 2.27083 13.0015 1.50391C14.0711 0.787435 16.0843 0.429199 19.041 0.429199H20.5698V3.29004C20.5698 5.57064 19.9896 7.19531 18.8291 8.16406C17.6484 9.13281 15.6151 9.61719 12.729 9.61719H11.3062V5.99951ZM11.3062 11.1914H12.729C15.5747 11.1914 17.6081 11.7565 18.8291 12.8867C19.9896 13.9665 20.5698 15.6719 20.5698 18.0029V21H19.041C16.1449 21 14.1317 20.5661 13.0015 19.6982C11.8713 18.8203 11.3062 17.2461 11.3062 14.9756V11.1914ZM35.4795 0.398926H43.8501V14.3853C43.8501 16.6154 43.3405 18.2552 42.3213 19.3047C41.2012 20.4349 39.3747 21 36.8418 21H35.4795V0.398926ZM23.8091 13.9312H32.9668V21H31.9829C29.0868 21 27.0029 20.5358 25.7314 19.6074C24.4499 18.6891 23.8091 17.1603 23.8091 15.021V13.9312Z" fill="#523C1E"/>
</svg>
